<?xml version="1.0" encoding="UTF-8"?>
<svg version="1.1" xmlns="http://www.w3.org/2000/svg" width="1024" height="1024">
<path d="M0 0 C0.7111647 -0.00336365 1.42232941 -0.00672729 2.15504456 -0.01019287 C11.3234349 0.06377313 20.92461256 1.86448491 27.91796875 8.18359375 C30.24849095 11.01815912 32.11230207 13.99429491 33.91796875 17.18359375 C34.33304687 17.88097656 34.748125 18.57835937 35.17578125 19.296875 C37.65886824 23.76816801 38.52480689 26.982124 37.91796875 32.18359375 C37.78841797 33.42496094 37.78841797 33.42496094 37.65625 34.69140625 C35.24834309 48.83063561 24.07796025 60.36970311 14.48828125 70.4375 C12.05467511 73.03753817 9.82232337 75.71070999 7.60546875 78.49609375 C2.75011262 84.53248245 -2.5496717 90.11310327 -7.859375 95.74609375 C-10.75466119 98.82073395 -13.55783043 101.95949305 -16.30859375 105.1640625 C-18.22472979 107.34609407 -20.19658755 109.47253046 -22.17358398 111.59936523 C-26.22710177 115.96505434 -30.07822122 120.35157233 -33.5625 125.19140625 C-36.06008879 128.46587999 -38.85860439 131.46302524 -41.640625 134.49609375 C-47.20867767 140.62540613 -52.57611348 146.91047568 -57.83203125 153.30859375 C-58.43257324 154.03852539 -59.03311523 154.76845703 -59.65185547 155.52050781 C-64.44135102 161.36123233 -69.13600683 167.27160275 -73.77734375 173.23046875 C-77.35947296 177.82045126 -80.91052114 182.11382779 -85.08203125 186.18359375 C-88.63860728 189.65474676 -88.63860728 189.65474676 -91.76953125 193.49609375 C-92.20265625 194.05296875 -92.63578125 194.60984375 -93.08203125 195.18359375 C-93.74203125 195.18359375 -94.40203125 195.18359375 -95.08203125 195.18359375 C-95.33984375 195.7559375 -95.59765625 196.32828125 -95.86328125 196.91796875 C-97.19569067 199.3948837 -98.73259243 201.31771035 -100.58203125 203.43359375 C-101.19046875 204.14 -101.79890625 204.84640625 -102.42578125 205.57421875 C-104.08203125 207.18359375 -104.08203125 207.18359375 -106.08203125 207.18359375 C-106.74203125 208.83359375 -107.40203125 210.48359375 -108.08203125 212.18359375 C-108.74203125 212.18359375 -109.40203125 212.18359375 -110.08203125 212.18359375 C-110.33339844 212.74433594 -110.58476562 213.30507813 -110.84375 213.8828125 C-116.03330643 223.52523754 -125.17829987 231.96939465 -132.36621094 240.21337891 C-135.79459392 244.15006796 -139.20829426 248.09951689 -142.62353516 252.04760742 C-145.29604922 255.13425916 -147.98644622 258.20162955 -150.70703125 261.24609375 C-154.43646193 265.47215715 -157.84895982 269.95653087 -161.26416016 274.43774414 C-163.40166487 277.20885267 -165.14444173 279.22520073 -168.08203125 281.18359375 C-160.86478564 281.26103212 -153.72255132 281.06616075 -146.5234375 280.5625 C-145.57186264 280.49828354 -144.62028778 280.43406708 -143.63987732 280.36790466 C-141.65082493 280.2326946 -139.6618972 280.09563867 -137.6730957 279.95678711 C-134.62811774 279.74495188 -131.58267659 279.54105883 -128.53710938 279.33789062 C-126.59501973 279.20489874 -124.65296119 279.07145158 -122.7109375 278.9375 C-121.80364395 278.87703995 -120.8963504 278.8165799 -119.96156311 278.75428772 C-118.69390358 278.66430763 -118.69390358 278.66430763 -117.40063477 278.57250977 C-116.66104019 278.5214357 -115.92144562 278.47036163 -115.15943909 278.41773987 C-113.06020214 278.18113338 -111.12601939 277.70669148 -109.08203125 277.18359375 C-106.64627848 276.94557173 -104.20662385 276.74658111 -101.765625 276.5703125 C-100.27705506 276.45843618 -98.78853139 276.34594296 -97.30004883 276.23291016 C-96.5201358 276.17435852 -95.74022278 276.11580688 -94.93667603 276.05548096 C-57.46963571 273.44566045 -57.46963571 273.44566045 -22 261.9765625 C-17.6327099 260.17094154 -13.68120957 259.52306357 -9.20703125 261.37109375 C-6.91969785 263.32205459 -6.13517403 264.39755241 -5.08203125 267.18359375 C-4.75957348 275.21279224 -6.18765186 282.17371085 -10.08203125 289.18359375 C-10.74203125 289.18359375 -11.40203125 289.18359375 -12.08203125 289.18359375 C-12.20191406 290.08078125 -12.20191406 290.08078125 -12.32421875 290.99609375 C-13.32853039 293.89513767 -14.62755877 294.57470244 -17.20703125 296.18359375 C-18.02558594 296.69664062 -18.84414063 297.2096875 -19.6875 297.73828125 C-20.47769531 298.21523438 -21.26789063 298.6921875 -22.08203125 299.18359375 C-22.97341797 299.74433594 -22.97341797 299.74433594 -23.8828125 300.31640625 C-31.73077956 305.07388509 -39.97823173 307.69348618 -49.015625 309 C-50.39174706 309.21389626 -50.39174706 309.21389626 -51.79566956 309.43211365 C-54.70203849 309.88131323 -57.61056033 310.31410199 -60.51953125 310.74609375 C-62.43311228 311.03860639 -64.34652548 311.33221911 -66.25976562 311.62695312 C-70.03096407 312.20658536 -73.80312282 312.77922535 -77.57617188 313.34667969 C-83.68799272 314.26938662 -89.79180367 315.24157459 -95.89219666 316.23695374 C-100.99756136 317.05716713 -106.08304486 317.63904386 -111.24609375 317.97265625 C-113.5664389 318.14524391 -115.85595393 318.3803425 -118.16601562 318.6496582 C-122.96231889 319.18701215 -127.76113845 319.58532554 -132.57421875 319.9375 C-133.91225052 320.0358036 -133.91225052 320.0358036 -135.27731323 320.13609314 C-152.03056477 321.34514575 -168.79845396 322.49157332 -185.59967041 322.65939331 C-187.07093623 322.67534292 -188.54213932 322.69950089 -190.01312256 322.73245239 C-198.11141625 322.89777376 -205.72803047 322.90867424 -212.08203125 317.18359375 C-213.31152344 315.01367188 -213.31152344 315.01367188 -214.08203125 313.18359375 C-214.74203125 313.18359375 -215.40203125 313.18359375 -216.08203125 313.18359375 C-220.78532279 304.63088205 -223.97344355 297.0395245 -222.08203125 287.18359375 C-220.58721476 283.70128718 -218.52616865 281.05964732 -216.08203125 278.18359375 C-215.45167969 277.39210938 -214.82132813 276.600625 -214.171875 275.78515625 C-212.30712564 273.46380471 -210.41135234 271.17201079 -208.50097656 268.88818359 C-206.86955461 266.92834394 -205.25255919 264.95708004 -203.63671875 262.984375 C-202.41015625 261.48828125 -201.18359375 259.9921875 -199.95703125 258.49609375 C-199.38339844 257.79548828 -198.80976563 257.09488281 -198.21875 256.37304688 C-192.93082933 249.94162849 -187.48148575 243.67512913 -181.83203125 237.55859375 C-177.66706435 232.95296483 -173.84194366 228.13660333 -170.04150391 223.23168945 C-167.01325962 219.33265099 -163.8645841 215.59308121 -160.56640625 211.91796875 C-158.66889593 209.70087775 -157.02447007 207.35578489 -155.41796875 204.921875 C-153.52399363 202.45749217 -151.28020853 200.37847541 -149.08203125 198.18359375 C-147.7043721 196.55737421 -146.35064493 194.91062704 -145.01953125 193.24609375 C-141.39103281 188.75597862 -137.67182706 184.36148906 -133.89453125 179.99609375 C-128.9566065 174.27450649 -124.27796916 168.47750061 -120.08203125 162.18359375 C-119.42203125 162.18359375 -118.76203125 162.18359375 -118.08203125 162.18359375 C-117.86675781 161.65894531 -117.65148437 161.13429688 -117.4296875 160.59375 C-115.55341714 157.2382172 -113.04707476 154.49278677 -110.51953125 151.62109375 C-109.42479486 150.36153372 -108.33105327 149.10110841 -107.23828125 147.83984375 C-106.69945312 147.21851563 -106.160625 146.5971875 -105.60546875 145.95703125 C-102.78814225 142.67737425 -100.07887021 139.3106759 -97.35546875 135.953125 C-95.28131683 133.42636604 -93.17317731 130.93505033 -91.04858398 128.45092773 C-86.88544003 123.58125822 -82.83906112 118.65593355 -78.95703125 113.55859375 C-71.78757404 104.14466319 -64.22522498 95.11349822 -56.42260742 86.22119141 C-55.88869385 85.61065918 -55.35478027 85.00012695 -54.8046875 84.37109375 C-54.08937866 83.55705078 -54.08937866 83.55705078 -53.35961914 82.7265625 C-51.88398524 80.99853976 -51.88398524 80.99853976 -50.08203125 78.18359375 C-49.42203125 78.18359375 -48.76203125 78.18359375 -48.08203125 78.18359375 C-47.83324219 77.60351562 -47.58445313 77.0234375 -47.328125 76.42578125 C-45.90286057 73.86119887 -44.29229301 72.30488587 -42.14453125 70.30859375 C-35.34185697 63.68261231 -29.34823033 56.08289236 -24.08203125 48.18359375 C-23.42203125 48.18359375 -22.76203125 48.18359375 -22.08203125 48.18359375 C-21.97890625 47.62671875 -21.87578125 47.06984375 -21.76953125 46.49609375 C-20.95123634 43.74364725 -19.5875254 41.61740869 -18.08203125 39.18359375 C-31.59055679 40.11377999 -44.94284351 41.64426669 -58.33203125 43.62109375 C-72.26327716 45.67688377 -86.19705216 47.40985443 -100.20410156 48.87939453 C-104.49937249 49.33340773 -108.79122251 49.81436203 -113.08203125 50.30859375 C-114.38140625 50.45554687 -115.68078125 50.6025 -117.01953125 50.75390625 C-120.11499851 51.09383538 -120.11499851 51.09383538 -123.08203125 52.18359375 C-125.08956888 52.33423072 -127.10124311 52.43216676 -129.11328125 52.5 C-130.31726563 52.54189453 -131.52125 52.58378906 -132.76171875 52.62695312 C-134.02242188 52.66626953 -135.283125 52.70558594 -136.58203125 52.74609375 C-138.42667969 52.81086914 -138.42667969 52.81086914 -140.30859375 52.87695312 C-143.89948631 52.99703074 -147.49025551 53.09424232 -151.08203125 53.18359375 C-152.13116699 53.21783447 -153.18030273 53.2520752 -154.26123047 53.28735352 C-162.96316031 53.46788238 -162.96316031 53.46788238 -167.20703125 50.99609375 C-168.01269531 50.54105469 -168.81835938 50.08601563 -169.6484375 49.6171875 C-170.45152344 49.14410156 -171.25460938 48.67101562 -172.08203125 48.18359375 C-172.93667969 47.74144531 -173.79132813 47.29929687 -174.671875 46.84375 C-180.94958698 43.58092655 -180.94958698 43.58092655 -182.08203125 40.18359375 C-182.74203125 40.18359375 -183.40203125 40.18359375 -184.08203125 40.18359375 C-184.08203125 39.52359375 -184.08203125 38.86359375 -184.08203125 38.18359375 C-185.07203125 37.85359375 -186.06203125 37.52359375 -187.08203125 37.18359375 C-189.53961092 29.81085475 -188.17161416 23.10425948 -185.08203125 16.18359375 C-184.75203125 15.52359375 -184.42203125 14.86359375 -184.08203125 14.18359375 C-183.42203125 14.18359375 -182.76203125 14.18359375 -182.08203125 14.18359375 C-182.08203125 13.52359375 -182.08203125 12.86359375 -182.08203125 12.18359375 C-175.45979393 8.51748186 -170.81547588 7.76032187 -163.39453125 8.93359375 C-150.04543251 10.83597543 -136.82185741 10.21570484 -123.39453125 9.43359375 C-122.65315918 9.39135681 -121.91178711 9.34911987 -121.14794922 9.30560303 C-108.59837707 8.57953196 -96.09395044 7.51199018 -83.58203125 6.30859375 C-68.18571696 4.82810413 -52.78579877 3.4390006 -37.36767578 2.20306396 C-35.17068253 2.02624237 -32.97389479 1.84684451 -30.77734375 1.66461182 C-20.52180651 0.81611646 -10.29542816 0.03297561 0 0 Z " fill="#010101" transform="translate(278.08203125,354.81640625)"/>
<path d="M0 0 C3.38719243 1.99539009 5.28148557 4.4963898 7.3515625 7.7890625 C8.5322843 9.67398945 8.5322843 9.67398945 11.0625 11.3125 C15.68777796 15.3447936 17.61508148 21.4686378 18.5 27.4375 C18.59601572 29.9706207 18.64209245 32.46795974 18.625 35 C18.62161621 35.7425 18.61823242 36.485 18.61474609 37.25 C18.48705211 51.52796927 17.4327548 65.73241116 16.22875977 79.95385742 C15.65746307 86.88604864 15.29594055 93.79906437 15.0625 100.75 C14.67255629 111.88094316 13.4890578 122.88859956 12.21875 133.94921875 C10.96634997 145.02505473 10.29217161 156.04732291 9.9375 167.1875 C9.87272461 169.10949219 9.87272461 169.10949219 9.80664062 171.0703125 C9.70178666 174.19263066 9.59961982 177.31501121 9.5 180.4375 C10.11335205 180.27668945 10.7267041 180.11587891 11.35864258 179.95019531 C18.46499896 178.24875324 25.99854781 179.14023999 32.5 182.4375 C36.38513767 185.92416201 38.17432621 190.25725125 38.5 195.4375 C36.47844242 201.62108789 32.3965808 204.50773229 26.875 207.5 C20.78879548 210.42739495 14.26362691 212.4375 7.5 212.4375 C7.5309375 214.3246875 7.5309375 214.3246875 7.5625 216.25 C7.56717624 219.74379206 7.36996828 223.14628063 7.00878906 226.62060547 C6.50231252 231.98918937 6.32404317 237.305192 6.296875 242.6953125 C6.28995132 243.63381546 6.28302765 244.57231842 6.27589417 245.53926086 C6.25872987 248.5470504 6.25230862 251.55466382 6.25 254.5625 C6.24866058 255.58884552 6.24732117 256.61519104 6.24594116 257.67263794 C6.25116889 276.12885012 7.38262792 293.85245289 11.25 311.9375 C12.37350895 317.23233474 13.3702751 322.21206472 11.5 327.4375 C8.98106916 330.63722296 6.42379266 333.20430802 2.5 334.4375 C-3.62701508 334.95673857 -9.01004276 334.34366545 -14.5 331.4375 C-19.5398004 326.41453465 -22.05908918 320.33223421 -24.25 313.6875 C-24.68505859 312.46160156 -24.68505859 312.46160156 -25.12890625 311.2109375 C-28.85669186 300.28290844 -29.82474517 289.35778213 -30.125 277.875 C-30.16222168 276.6264624 -30.19944336 275.3779248 -30.23779297 274.09155273 C-31.22140126 238.06746573 -31.22140126 238.06746573 -29.5 221.4375 C-36.73397179 221.2483271 -43.59664731 221.95121377 -50.75 223 C-51.93134521 223.17055908 -53.11269043 223.34111816 -54.32983398 223.5168457 C-65.12127502 225.13005991 -75.84325497 227.09126949 -86.5625 229.125 C-87.79752258 229.3591008 -87.79752258 229.3591008 -89.05749512 229.59793091 C-91.40491184 230.04482737 -93.75148741 230.49582032 -96.09765625 230.94921875 C-96.80267776 231.08449982 -97.50769928 231.21978088 -98.23408508 231.35916138 C-101.06760035 231.91304607 -103.75684848 232.52311616 -106.5 233.4375 C-107.98734099 235.60606315 -107.98734099 235.60606315 -109.3203125 238.3359375 C-109.85116455 239.36340088 -110.3820166 240.39086426 -110.92895508 241.44946289 C-111.76849731 243.11416626 -111.76849731 243.11416626 -112.625 244.8125 C-113.20467529 245.94486084 -113.78435059 247.07722168 -114.3815918 248.24389648 C-118.56010965 256.45221608 -122.55726788 264.73671887 -126.453125 273.08203125 C-131.15509974 283.13952846 -136.21632118 293.01006293 -141.49365234 302.77636719 C-143.25663484 306.05307398 -144.96503818 309.34753789 -146.60546875 312.6875 C-146.95416016 313.39712891 -147.30285156 314.10675781 -147.66210938 314.83789062 C-148.32145783 316.18798509 -148.97555195 317.54066515 -149.62304688 318.89648438 C-154.97932084 329.87059133 -154.97932084 329.87059133 -159.8125 332.875 C-166.26983333 334.22653488 -170.9375496 333.90481024 -176.67578125 330.703125 C-181.45025016 327.3906455 -184.26904922 323.14463542 -185.5 317.4375 C-186.06374497 311.75978284 -185.80988074 308.21843884 -182.5 303.4375 C-181.80791206 301.5589756 -181.11710634 299.6799509 -180.4375 297.796875 C-177.37571289 290.09137744 -173.20200142 282.81458305 -169.20703125 275.5625 C-167.06510631 271.64135595 -164.96696666 267.69797147 -162.875 263.75 C-162.50270264 263.04915283 -162.13040527 262.34830566 -161.74682617 261.6262207 C-160.65708799 259.56712662 -159.57669337 257.50344204 -158.5 255.4375 C-158.11908203 254.71353027 -157.73816406 253.98956055 -157.34570312 253.24365234 C-156.79946289 252.18525146 -156.79946289 252.18525146 -156.2421875 251.10546875 C-155.91331543 250.47278076 -155.58444336 249.84009277 -155.24560547 249.18823242 C-154.26097755 246.87625901 -154.19041714 244.91416285 -154.5 242.4375 C-156.10875 241.880625 -156.10875 241.880625 -157.75 241.3125 C-161.77124735 239.59492269 -163.43932409 237.32108152 -165.5 233.4375 C-166.98243541 229.73141149 -167.11400883 225.36277072 -166.5 221.4375 C-164.01327193 216.16214078 -161.03881289 214.84864084 -155.8828125 212.59375 C-153.30535608 211.71277183 -151.08052751 211.12222281 -148.4296875 210.65625 C-140.69899484 209.486682 -140.69899484 209.486682 -134.4609375 205.1875 C-132.87777564 202.00348733 -131.70213537 198.78455329 -130.5 195.4375 C-129.10306584 192.32451359 -127.60986776 189.25931053 -126.125 186.1875 C-125.34548534 184.53686836 -124.56683869 182.88582652 -123.7890625 181.234375 C-121.44127425 176.28647532 -118.99550825 171.39192229 -116.5222168 166.50585938 C-114.3000273 162.09555798 -112.18024999 157.64516035 -110.09423828 153.16894531 C-107.31135344 147.19907584 -104.55547332 141.32035357 -101.125 135.6875 C-97.72559269 130.08201081 -94.97031777 124.23927192 -92.1875 118.3125 C-88.41787547 110.29258662 -84.42711379 102.489726 -80.05493164 94.78344727 C-77.44117512 90.16620826 -74.96934053 85.50951985 -72.625 80.75 C-60.87559222 56.97243574 -48.74374128 33.49420166 -32.5 12.4375 C-31.53126953 11.08205078 -31.53126953 11.08205078 -30.54296875 9.69921875 C-22.98062532 -0.73101112 -12.74266424 -5.55078177 0 0 Z M-20.5 65.4375 C-20.5 66.4275 -20.5 67.4175 -20.5 68.4375 C-21.16 68.4375 -21.82 68.4375 -22.5 68.4375 C-23.77571484 70.6222753 -25.04560673 72.81011619 -26.3125 75 C-26.66892578 75.60908203 -27.02535156 76.21816406 -27.39257812 76.84570312 C-29.14888705 79.89104613 -30.75580569 82.91103499 -32.11328125 86.15625 C-33.22041083 88.77593688 -34.33149565 91.00794803 -35.875 93.375 C-36.30941406 94.05433594 -36.74382812 94.73367188 -37.19140625 95.43359375 C-38.00532373 96.67998082 -38.82467336 97.92285915 -39.65234375 99.16015625 C-42.48739019 103.50340922 -44.80029514 108.0263323 -47.0625 112.6875 C-50.25227972 119.25460162 -53.86425914 125.47020162 -57.6875 131.6875 C-61.56169678 137.99605339 -64.8697235 144.0511155 -67.49609375 150.98046875 C-68.74886954 154.04660094 -70.42682066 156.63755258 -72.25390625 159.38671875 C-73.71072909 161.7843112 -74.81261849 164.24288249 -75.9375 166.8125 C-77.59068175 170.57634776 -79.40135155 174.06556633 -81.5625 177.5625 C-85.47540034 183.89958796 -88.19692779 190.36666427 -90.5 197.4375 C-74.64165069 194.90710609 -74.64165069 194.90710609 -58.875 191.875 C-51.51778414 190.33804737 -44.10153002 189.37344201 -36.64599609 188.43920898 C-35.73414551 188.32262939 -34.82229492 188.2060498 -33.8828125 188.0859375 C-33.06184082 187.98458496 -32.24086914 187.88323242 -31.39501953 187.77880859 C-29.49495373 187.62264391 -29.49495373 187.62264391 -28.5 186.4375 C-25.7918705 172.71098699 -25.65377398 158.49057532 -24.9375 144.5625 C-24.74934808 140.97529556 -24.5594488 137.38820022 -24.36671448 133.80123901 C-24.24801214 131.58534986 -24.13206682 129.36931061 -24.01939392 127.15310669 C-23.73914727 121.85507149 -23.34384868 116.60672717 -22.71644592 111.33847046 C-22.45172582 109.01352442 -22.31206149 106.69712571 -22.21875 104.359375 C-22.16267578 103.08320313 -22.16267578 103.08320313 -22.10546875 101.78125 C-22.03452194 100.03648401 -21.96422067 98.29169166 -21.89453125 96.546875 C-21.71050654 92.3841092 -21.32238401 88.52391979 -20.5 84.4375 C-20.23580976 81.17027338 -20.08644054 77.89925018 -19.9375 74.625 C-19.87272461 73.29952148 -19.87272461 73.29952148 -19.80664062 71.94726562 C-19.70108464 69.77750377 -19.60008929 67.6075209 -19.5 65.4375 C-19.83 65.4375 -20.16 65.4375 -20.5 65.4375 Z " fill="#010101" transform="translate(597.5,342.5625)"/>
<path d="M0 0 C2.20945384 -0.00967256 4.41796157 -0.04077891 6.62719727 -0.07226562 C20.01005342 -0.17478906 32.49360085 1.57954498 44.73071289 7.36523438 C45.5736792 7.75485352 46.41664551 8.14447266 47.28515625 8.54589844 C56.18962095 12.80310824 64.45977699 17.54223074 69.54321289 26.24023438 C70.53321289 26.90023438 71.52321289 27.56023437 72.54321289 28.24023438 C74.78639648 31.77049052 76.62128348 35.52708612 78.54321289 39.24023438 C79.0034082 40.07425781 79.46360352 40.90828125 79.93774414 41.76757812 C89.13107667 58.90439435 88.55714301 78.0494288 83.23193359 96.33911133 C78.09681809 112.62434714 69.52921872 127.87747928 56.54321289 139.24023438 C55.88321289 139.24023438 55.22321289 139.24023438 54.54321289 139.24023438 C54.31891602 139.79066406 54.09461914 140.34109375 53.86352539 140.90820312 C47.8126207 151.59574781 34.97041964 160.32521593 25.14477539 167.32226562 C22.92863315 168.95608821 20.89284588 170.64379191 18.85571289 172.49023438 C16.0136345 175.0023084 13.14914833 176.52094909 9.72290039 178.10742188 C6.23027236 179.92258698 3.11871339 182.24928167 -0.06225586 184.55664062 C-8.72255867 190.64569529 -18.4272526 193.72872058 -28.33178711 197.24023438 C-29.56026367 197.67851563 -30.78874023 198.11679687 -32.05444336 198.56835938 C-57.69271062 207.69151557 -57.69271062 207.69151557 -71.45678711 207.24023438 C-71.58053711 208.06523438 -71.70428711 208.89023437 -71.83178711 209.74023438 C-73.30558742 217.99351611 -75.72496049 226.0853631 -77.89428711 234.17773438 C-78.34384766 235.8705957 -78.34384766 235.8705957 -78.80249023 237.59765625 C-80.08638973 242.38512528 -81.37804445 247.13842516 -83.00366211 251.82226562 C-84.81830464 257.11933657 -86.03635613 262.5332183 -87.26928711 267.99023438 C-87.52355469 269.10333984 -87.77782227 270.21644531 -88.03979492 271.36328125 C-91.6367195 287.26036385 -94.92349617 303.23224622 -98.01831055 319.234375 C-98.45678711 321.24023438 -98.45678711 321.24023438 -99.45678711 324.24023438 C-100.11678711 324.24023438 -100.77678711 324.24023438 -101.45678711 324.24023438 C-101.74553711 324.83835937 -102.03428711 325.43648437 -102.33178711 326.05273438 C-103.45678711 328.24023438 -103.45678711 328.24023438 -105.45678711 331.24023438 C-110.03108878 332.27434331 -114.25534181 331.68329934 -118.26928711 329.30273438 C-119.32116211 328.62210938 -120.37303711 327.94148438 -121.45678711 327.24023438 C-122.44678711 327.04300781 -122.44678711 327.04300781 -123.45678711 326.84179688 C-127.42318506 325.64877874 -129.41878843 321.64741483 -131.45678711 318.24023438 C-132.33178711 315.30273438 -132.33178711 315.30273438 -132.45678711 312.24023438 C-132.53928711 310.98210937 -132.62178711 309.72398437 -132.70678711 308.42773438 C-132.5840688 298.04927184 -129.93430592 287.31072675 -127.20288086 277.34179688 C-126.55838414 274.66258014 -126.04887574 272.01538561 -125.57397461 269.30273438 C-124.33504984 262.35141249 -122.75231736 255.4891937 -121.14428711 248.61523438 C-120.98994202 247.95282745 -120.83559692 247.29042053 -120.67657471 246.60794067 C-118.76163456 238.41059885 -116.72704271 230.28321442 -114.23095703 222.2421875 C-112.54578165 216.75550559 -111.23847444 211.20850397 -109.95678711 205.61523438 C-108.25790677 198.21682012 -106.17165066 191.18398169 -103.65209961 184.02148438 C-102.01054198 178.82858311 -100.87656328 173.56319299 -99.80029297 168.2277832 C-98.64866011 162.61866113 -98.64866011 162.61866113 -97.47045898 160.29492188 C-96.36149335 158.04707632 -95.85250022 156.01621151 -95.34350586 153.56445312 C-95.15006592 152.66162598 -94.95662598 151.75879883 -94.75732422 150.82861328 C-94.55502197 149.87132324 -94.35271973 148.9140332 -94.14428711 147.92773438 C-92.4116028 139.99451086 -90.33231241 132.4515485 -87.63647461 124.79101562 C-86.4044021 121.08255896 -85.42572299 117.34999118 -84.51928711 113.55273438 C-81.78632525 102.1623363 -78.67331201 90.71684647 -74.39428711 79.80273438 C-71.13274517 71.27043057 -69.46287242 62.13264093 -67.45678711 53.24023438 C-71.55619269 54.54182606 -75.41725299 56.08967646 -79.33178711 57.86523438 C-85.95072199 60.62720967 -90.61538148 61.26765606 -97.58178711 59.17773438 C-102.06612163 57.30262803 -104.9152448 54.33836142 -107.45678711 50.24023438 C-108.84296164 46.16834668 -108.70216539 42.39849947 -107.47241211 38.24414062 C-99.37975821 22.27671196 -66.75575467 15.2472019 -51.28100586 9.91210938 C-47.07282665 8.46095584 -42.88906136 6.95182145 -38.70678711 5.42773438 C-25.84101184 0.84355043 -13.56944791 0.03574435 0 0 Z M-20.45678711 35.24023438 C-21.72264648 35.48902344 -22.98850586 35.7378125 -24.29272461 35.99414062 C-28.22227317 38.78363497 -28.15453024 39.9228739 -28.94506836 44.56054688 C-29.25319918 47.164319 -29.52789149 49.75599898 -29.76928711 52.36523438 C-30.05393271 54.95151659 -30.34162464 57.53746559 -30.63256836 60.12304688 C-30.76614746 61.3518457 -30.89972656 62.58064453 -31.03735352 63.84667969 C-31.79688602 69.99190774 -33.09113001 75.52322972 -35.45678711 81.24023438 C-36.07059139 83.58664073 -36.65019545 85.94210221 -37.20678711 88.30273438 C-38.91184303 95.34230766 -40.91736882 102.25914375 -43.03613281 109.18408203 C-45.1068029 115.98450398 -47.01266039 122.82289946 -48.89428711 129.67773438 C-51.37743485 138.70527876 -54.12238145 147.59858905 -57.23583984 156.42944336 C-58.84516199 161.06145971 -59.94636023 165.35845935 -60.45678711 170.24023438 C-54.85040645 169.66522097 -50.4867866 167.60052026 -45.45678711 165.24023438 C-44.33916992 164.75554687 -43.22155273 164.27085937 -42.07006836 163.77148438 C-28.1219056 157.65513804 -16.16978642 148.91715302 -3.99975586 139.86132812 C-1.70932051 138.15770369 0.59704771 136.48289924 2.92993164 134.83789062 C3.93668945 134.12503906 4.94344727 133.4121875 5.98071289 132.67773438 C6.86629883 132.05769531 7.75188477 131.43765625 8.66430664 130.79882812 C9.2843457 130.28449219 9.90438477 129.77015625 10.54321289 129.24023438 C10.54321289 128.58023438 10.54321289 127.92023438 10.54321289 127.24023438 C11.13231445 126.98113281 11.72141602 126.72203125 12.32836914 126.45507812 C14.69678454 125.15600019 16.14637246 123.77263807 17.98071289 121.80273438 C20.65453716 119.03178401 23.2308964 117.20971986 26.54321289 115.24023438 C27.90960631 113.60056228 29.24834468 111.93695824 30.54321289 110.24023438 C31.20321289 109.91023438 31.86321289 109.58023438 32.54321289 109.24023438 C32.54321289 108.58023438 32.54321289 107.92023438 32.54321289 107.24023438 C33.20321289 107.24023438 33.86321289 107.24023438 34.54321289 107.24023438 C45.14344781 95.72367267 53.70591006 84.25365093 54.54321289 68.24023438 C54.09547506 58.78177279 52.71231715 52.14506291 46.41821289 44.74023438 C33.05875026 33.12331035 16.2960042 29.78495473 -0.9934082 30.98339844 C-7.64704438 31.67711749 -14.08725418 33.22915692 -20.45678711 35.24023438 Z " fill="#010101" transform="translate(776.456787109375,345.759765625)"/>
<path d="M0 0 C1.22912109 -0.03287109 2.45824219 -0.06574219 3.72460938 -0.09960938 C13.60609998 -0.15758079 20.45527516 2.0672067 28.0625 8.375 C34.03998521 14.90621899 37.64177912 23.86692099 37.8125 32.6875 C37.69123219 34.6075737 37.52731673 36.52563111 37.3125 38.4375 C37.250625 39.2315625 37.18875 40.025625 37.125 40.84375 C34.85062402 57.90156983 20.53185608 80.19249904 7.3125 90.4375 C5.51076808 92.43125323 3.77612586 94.46856449 2.05859375 96.53515625 C0.27303354 98.48049813 -1.48136908 99.98930363 -3.6875 101.4375 C-4.3475 101.4375 -5.0075 101.4375 -5.6875 101.4375 C-6.1825 102.9225 -6.1825 102.9225 -6.6875 104.4375 C-13.34653214 110.24009337 -21.37375762 113.98529802 -29.3125 117.6875 C-30.93285156 118.4609375 -30.93285156 118.4609375 -32.5859375 119.25 C-51.63826879 128.26500554 -51.63826879 128.26500554 -62.44140625 126.953125 C-63.24006104 126.85805664 -64.03871582 126.76298828 -64.86157227 126.66503906 C-65.46412842 126.58995117 -66.06668457 126.51486328 -66.6875 126.4375 C-66.74621491 130.72910791 -66.78133483 135.02061058 -66.8125 139.3125 C-66.82925781 140.51648438 -66.84601563 141.72046875 -66.86328125 142.9609375 C-67.21000509 155.63742324 -67.21000509 155.63742324 -62.3125 166.9375 C-58.44456531 170.62124732 -55.83590727 171.71829889 -50.5 171.6875 C-29.30940049 171.12838128 -11.65205897 155.21986727 3.3125 141.4375 C4.58020636 140.09794922 5.82163936 138.73128183 7 137.3125 C17.4493939 125.06637774 17.4493939 125.06637774 24 124 C26.91108375 124.55074557 27.58701878 125.02761003 29.3125 127.4375 C31.53888168 140.81093555 27.79575556 151.35638011 20.06347656 162.18701172 C17.05270844 166.16560913 13.73411974 169.81211963 10.3125 173.4375 C9.81089355 173.98535156 9.30928711 174.53320312 8.79248047 175.09765625 C-1.8053633 186.63582023 -13.3433545 195.49382009 -28.2734375 200.59765625 C-30.60889 201.21372186 -30.60889 201.21372186 -31.6875 202.4375 C-49.92545077 205.87818903 -64.80516117 204.08787668 -80.6875 194.4375 C-83.38212451 192.5619103 -85.41409264 190.82457773 -87.6875 188.4375 C-87.6875 187.7775 -87.6875 187.1175 -87.6875 186.4375 C-88.3475 186.4375 -89.0075 186.4375 -89.6875 186.4375 C-100.69134999 172.85560515 -103.85973184 157.81521841 -103.875 140.75 C-103.87580566 139.8643335 -103.87661133 138.97866699 -103.87744141 138.06616211 C-103.82188573 131.70627145 -103.82188573 131.70627145 -102.6875 129.4375 C-102.41414841 128.00472978 -102.18006286 126.56431878 -101.96875 125.12109375 C-101.84113281 124.27482422 -101.71351563 123.42855469 -101.58203125 122.55664062 C-101.31844788 120.76505663 -101.05542942 118.97338944 -100.79296875 117.18164062 C-100.66535156 116.33666016 -100.53773438 115.49167969 -100.40625 114.62109375 C-100.23512695 113.45404907 -100.23512695 113.45404907 -100.06054688 112.26342773 C-99.6875 110.4375 -99.6875 110.4375 -98.6875 109.4375 C-98.501875 107.890625 -98.501875 107.890625 -98.3125 106.3125 C-97.77138956 102.95761527 -96.92398315 100.50890017 -95.51171875 97.45703125 C-94.1342575 94.08192477 -93.30444305 90.56066133 -92.3828125 87.0390625 C-91.60456137 84.12717904 -90.68651521 81.28085097 -89.6875 78.4375 C-89.0275 78.4375 -88.3675 78.4375 -87.6875 78.4375 C-87.57664062 77.71691406 -87.46578125 76.99632812 -87.3515625 76.25390625 C-86.64214364 73.24513566 -85.5787505 71.06289861 -84.0625 68.375 C-83.52238281 67.41722656 -82.98226563 66.45945312 -82.42578125 65.47265625 C-81.85214844 64.47105469 -81.27851563 63.46945312 -80.6875 62.4375 C-80.12417969 61.42558594 -79.56085938 60.41367187 -78.98046875 59.37109375 C-75.77912912 53.71274402 -72.40417868 48.49113606 -68.265625 43.47265625 C-66.62112274 41.45278327 -66.62112274 41.45278327 -65.34765625 39.0703125 C-63.24134684 35.72995358 -60.65585129 33.02421343 -57.875 30.25 C-57.31111572 29.68482666 -56.74723145 29.11965332 -56.16625977 28.53735352 C-51.0819831 23.57611173 -45.5656585 19.51455886 -39.68359375 15.55859375 C-36.72449846 13.60508904 -36.72449846 13.60508904 -34.71875 11.38671875 C-32.05959514 8.83495284 -29.04040713 7.37969075 -25.75 5.8125 C-25.14220703 5.5134375 -24.53441406 5.214375 -23.90820312 4.90625 C-15.50420991 0.80851005 -9.33377932 0.0433681 0 0 Z M-17.6875 37.4375 C-18.6775 38.18 -19.6675 38.9225 -20.6875 39.6875 C-29.05225597 46.77593672 -35.11691487 56.72928295 -41.0625 65.8125 C-41.75988281 66.86566406 -42.45726562 67.91882813 -43.17578125 69.00390625 C-47.58204387 75.67673006 -51.59506345 82.04254304 -54.6875 89.4375 C-55.30625 90.55125 -55.30625 90.55125 -55.9375 91.6875 C-56.99546032 93.6208921 -56.99546032 93.6208921 -55.6875 96.4375 C-41.98136652 89.81659487 -29.76211822 83.08039581 -18.6875 72.4375 C-17.96820313 71.75816406 -17.24890625 71.07882812 -16.5078125 70.37890625 C-14.00762338 67.99206938 -14.00762338 67.99206938 -11.6875 65.4375 C-11.6875 64.7775 -11.6875 64.1175 -11.6875 63.4375 C-11.0275 63.4375 -10.3675 63.4375 -9.6875 63.4375 C2.51656231 49.36422745 2.51656231 49.36422745 7.125 32.0625 C6.49695276 29.31101332 6.49695276 29.31101332 4.3125 27.4375 C-4.90480466 26.36572039 -11.00928941 31.95226626 -17.6875 37.4375 Z " fill="#010101" transform="translate(385.6875,457.5625)"/>
<path d="M0 0 C7.65541948 4.3148728 13.53052484 8.38971724 16.4375 16.9375 C18.77947012 30.41577702 13.73842306 42.55499695 9.39013672 55.10595703 C7.80510813 59.8171722 6.59400428 64.59618508 5.359375 69.41015625 C2.6794032 79.66445514 -0.48258082 89.7936465 -3.68286133 99.89575195 C-4.79482605 103.42112105 -5.86507955 106.95399094 -6.8828125 110.5078125 C-7.10130859 111.26835937 -7.31980469 112.02890625 -7.54492188 112.8125 C-7.96024536 114.26676337 -8.37074279 115.72241756 -8.77539062 117.1796875 C-9.6352615 120.18777814 -10.55909173 122.93096327 -12.0078125 125.70947266 C-13.6772626 129.17578378 -14.71169138 132.6174728 -15.6484375 136.328125 C-15.92168602 137.37553612 -15.92168602 137.37553612 -16.20045471 138.44410706 C-16.58665397 139.92736533 -16.96987566 141.41140166 -17.35031128 142.89614868 C-17.94175654 145.20411004 -18.54105782 147.50989475 -19.14282227 149.81518555 C-19.73891884 152.0987931 -20.33468308 154.38247658 -20.92805481 156.66679382 C-22.41027901 162.37282864 -23.92670568 168.06831557 -25.5 173.75 C-25.78012939 174.77625488 -25.78012939 174.77625488 -26.06591797 175.82324219 C-26.78485515 178.40819992 -27.54918588 180.90526851 -28.57421875 183.38671875 C-29.90438095 186.81990418 -30.64606269 190.3519274 -31.4375 193.9375 C-32.84879099 200.1278458 -34.49370872 206.16254402 -36.421875 212.21484375 C-37.94299781 217.17933019 -39.31939091 222.17899135 -40.6875 227.1875 C-41.06817627 228.57231567 -41.06817627 228.57231567 -41.45654297 229.98510742 C-42.5871192 234.14462666 -43.66242377 238.29507097 -44.55859375 242.51171875 C-45.58664721 247.269626 -47.0364017 251.86123065 -48.5 256.5 C-50.75535795 263.83819762 -52.48741475 271.01936726 -53.78125 278.58984375 C-54.89080906 285.00181488 -56.35801343 291.34209892 -57.76196289 297.69458008 C-58.06734985 299.07939575 -58.06734985 299.07939575 -58.37890625 300.4921875 C-58.57983887 301.39694824 -58.78077148 302.30170898 -58.98779297 303.23388672 C-59.55859565 305.91913264 -60.05125505 308.61182627 -60.54296875 311.3125 C-61.70206897 317.09596893 -63.57153083 321.49657166 -68.5625 324.9375 C-74.60256687 325.98197118 -80.66813711 325.66339286 -86.5625 323.9375 C-86.5625 323.2775 -86.5625 322.6175 -86.5625 321.9375 C-87.490625 321.56625 -87.490625 321.56625 -88.4375 321.1875 C-90.91318687 319.73121361 -91.51375002 318.55937494 -92.5625 315.9375 C-93.2225 315.9375 -93.8825 315.9375 -94.5625 315.9375 C-100.65019434 306.99619894 -99.53016414 296.12754359 -97.76171875 285.890625 C-96.41662473 278.96032162 -94.81342527 272.35661576 -92.24291992 265.77563477 C-91.29238414 263.2077898 -90.69772896 260.6126067 -90.125 257.9375 C-85.62329027 237.66802165 -85.62329027 237.66802165 -83 230.375 C-81.17498709 225.25509892 -80.34613476 219.92314026 -79.40625 214.5859375 C-78.76981695 211.83395386 -78.12147747 209.72443307 -77 207.19140625 C-75.45574284 203.69584588 -75.09145551 200.70630799 -74.5625 196.9375 C-74.10875 195.803125 -73.655 194.66875 -73.1875 193.5 C-71.64919244 189.64319061 -70.94948891 185.83931976 -70.25 181.75 C-69.0889409 175.02021726 -67.44729375 168.50046628 -65.5625 161.9375 C-65.31330811 161.06585205 -65.06411621 160.1942041 -64.80737305 159.29614258 C-63.66803095 155.40161662 -62.46004302 151.58627276 -60.9765625 147.80859375 C-59.23048903 143.28177877 -58.43200304 138.73817909 -57.5703125 133.96679688 C-56.65111607 129.02611607 -56.65111607 129.02611607 -55.5625 127.9375 C-55.376875 126.4215625 -55.376875 126.4215625 -55.1875 124.875 C-54.50381871 120.56780784 -53.17323345 116.96020354 -51.5625 112.9375 C-50.05789324 108.92521529 -49.35882642 105.30755123 -48.90283203 101.05126953 C-48.5466069 98.83878947 -47.9365348 96.91224618 -47.1796875 94.8046875 C-45.49677774 89.89272291 -44.28330633 84.93256003 -43.125 79.875 C-42.69197945 78.02590734 -42.25837946 76.17695029 -41.82421875 74.328125 C-41.61200684 73.41998047 -41.39979492 72.51183594 -41.18115234 71.57617188 C-36.88018388 53.2317097 -36.88018388 53.2317097 -33.5625 44.9375 C-32.87994011 42.60876625 -32.21199225 40.27567209 -31.5625 37.9375 C-31.2428125 37.0196875 -30.923125 36.101875 -30.59375 35.15625 C-29.52153915 31.80965249 -28.80435215 28.50915666 -28.125 25.0625 C-27.01066149 19.73159414 -25.6408651 14.96021566 -23.5625 9.9375 C-23.24345703 8.88949219 -23.24345703 8.88949219 -22.91796875 7.8203125 C-21.7761619 4.17454326 -20.77778048 2.15816249 -18.0625 -0.625 C-11.9328929 -3.1425172 -6.20831436 -1.85160253 0 0 Z " fill="#010101" transform="translate(931.5625,352.0625)"/>
</svg>
